<svg width="2083" height="173" viewBox="0 0 2083 173" fill="none" xmlns="http://www.w3.org/2000/svg">
<path d="M58.3333 44H141.667V77.3333H58.3333V44Z" fill="#104962"/>
<path d="M83.3333 19H116.667V102.333H83.3333V19Z" fill="#104962"/>
<path d="M83.3333 113H116.667V159C116.667 161.761 114.428 164 111.667 164H88.3333C85.5719 164 83.3333 161.761 83.3333 159V113Z" fill="#3C3C3C"/>
<path d="M0 49C0 46.2386 2.23858 44 5 44H33.3333V159C33.3333 161.761 31.0947 164 28.3333 164H5C2.23857 164 0 161.761 0 159V49Z" fill="#3C3C3C"/>
<path d="M0 49C0 46.2386 2.23858 44 5 44H46.6666V77.3333H0V49Z" fill="#3C3C3C"/>
<path d="M153.333 44H195C197.761 44 200 46.2386 200 49V77.3333H153.333V44Z" fill="#3C3C3C"/>
<path d="M166.667 44H195C197.761 44 200 46.2386 200 49L200 159C200 161.761 197.761 164 195 164H171.667C168.905 164 166.667 161.761 166.667 159V44Z" fill="#3C3C3C"/>
<path d="M33.3333 16.6667C33.3333 25.8714 25.8714 33.3333 16.6667 33.3333C7.46192 33.3333 0 25.8714 0 16.6667C0 7.46192 7.46192 0 16.6667 0C25.8714 0 33.3333 7.46192 33.3333 16.6667Z" fill="#3C3C3C"/>
<path d="M200 16.6667C200 25.8714 192.538 33.3333 183.333 33.3333C174.128 33.3333 166.667 25.8714 166.667 16.6667C166.667 7.46192 174.128 0 183.333 0C192.538 0 200 7.46192 200 16.6667Z" fill="#3C3C3C"/>
<path d="M287.125 12.5H303.55C311.8 12.5 318.4 13.625 323.35 15.875C328.3 18.125 332.575 21.725 336.175 26.675C339.775 31.475 343.975 38.75 348.775 48.5L361.825 74.825L374.875 48.5C379.675 38.75 383.875 31.475 387.475 26.675C391.075 21.725 395.35 18.125 400.3 15.875C405.25 13.625 411.85 12.5 420.1 12.5H436.525V170H407.725V45.575C405.925 45.575 404.425 46.4 403.225 48.05C402.025 49.7 400.225 52.625 397.825 56.825L361.825 123.65L325.825 56.825C323.425 52.625 321.625 49.7 320.425 48.05C319.225 46.4 317.725 45.5 315.925 45.35V170H287.125V12.5Z" fill="#3C3C3C"/>
<path d="M555.096 170C535.146 170 520.821 165.8 512.121 157.4C503.421 149 499.071 136.85 499.071 120.95V61.55C499.071 45.65 503.421 33.5 512.121 25.1C520.821 16.7 535.146 12.5 555.096 12.5H607.746V37.25H555.096C546.846 37.25 540.696 39.2 536.646 43.1C532.746 47 530.797 53.15 530.797 61.55V78.875H597.846V103.625H530.797V120.95C530.797 129.2 532.746 135.35 536.646 139.4C540.696 143.3 546.846 145.25 555.096 145.25H608.196V170H555.096Z" fill="#3C3C3C"/>
<path d="M666.751 12.5H725.251C742.951 12.5 756.901 15.05 767.101 20.15C777.451 25.25 784.876 33.5 789.376 44.9C794.026 56.15 796.351 71.6 796.351 91.25C796.351 110.9 794.026 126.425 789.376 137.825C784.876 149.075 777.451 157.25 767.101 162.35C756.901 167.45 742.951 170 725.251 170H666.751V12.5ZM725.251 145.25C735.151 145.25 742.951 143.525 748.651 140.075C754.351 136.625 758.401 131 760.801 123.2C763.351 115.4 764.626 104.75 764.626 91.25C764.626 77.75 763.351 67.1 760.801 59.3C758.401 51.5 754.351 45.875 748.651 42.425C742.951 38.975 735.151 37.25 725.251 37.25H698.476V145.25H725.251Z" fill="#3C3C3C"/>
<path d="M858.212 12.5H889.937V170H858.212V12.5Z" fill="#3C3C3C"/>
<path d="M1017.86 172.7C996.71 172.7 980.585 167.9 969.485 158.3C958.385 148.55 952.835 134.225 952.835 115.325V67.175C952.835 48.275 958.385 34.025 969.485 24.425C980.585 14.675 996.71 9.8 1017.86 9.8C1032.56 9.8 1044.56 12.275 1053.86 17.225C1063.31 22.025 1070.81 29.3 1076.36 39.05L1053.64 54.8C1048.99 47.6 1044.11 42.425 1039.01 39.275C1034.06 36.125 1027.01 34.55 1017.86 34.55C1006.31 34.55 997.835 37.325 992.435 42.875C987.185 48.275 984.56 56.375 984.56 67.175V115.325C984.56 126.125 987.185 134.3 992.435 139.85C997.835 145.25 1006.31 147.95 1017.86 147.95C1027.76 147.95 1035.41 146.3 1040.81 143C1046.36 139.55 1051.31 134.075 1055.66 126.575L1078.16 143.225C1073.36 150.125 1068.41 155.675 1063.31 159.875C1058.21 164.075 1051.99 167.3 1044.64 169.55C1037.44 171.65 1028.51 172.7 1017.86 172.7Z" fill="#3C3C3C"/>
<path d="M1191.05 172.925C1170.5 172.925 1154.97 168.575 1144.47 159.875C1133.97 151.025 1128.72 138.8 1128.72 123.2V12.5H1160.45V123.2C1160.45 139.85 1170.65 148.175 1191.05 148.175C1211.45 148.175 1221.65 139.85 1221.65 123.2V12.5H1253.37V123.2C1253.37 138.8 1248.12 151.025 1237.62 159.875C1227.12 168.575 1211.6 172.925 1191.05 172.925Z" fill="#3C3C3C"/>
<path d="M1365.61 170C1346.41 170 1332.61 165.8 1324.21 157.4C1315.96 149 1311.83 136.85 1311.83 120.95V12.5H1343.56V120.95C1343.56 129.2 1345.36 135.35 1348.96 139.4C1352.56 143.3 1358.11 145.25 1365.61 145.25H1416.01V170H1365.61Z" fill="#3C3C3C"/>
<path d="M1478.05 37.25H1430.57V12.5H1557.25V37.25H1509.77V170H1478.05V37.25Z" fill="#3C3C3C"/>
<path d="M1668.97 172.925C1648.42 172.925 1632.89 168.575 1622.39 159.875C1611.89 151.025 1606.64 138.8 1606.64 123.2V12.5H1638.37V123.2C1638.37 139.85 1648.57 148.175 1668.97 148.175C1689.37 148.175 1699.57 139.85 1699.57 123.2V12.5H1731.29V123.2C1731.29 138.8 1726.04 151.025 1715.54 159.875C1705.04 168.575 1689.52 172.925 1668.97 172.925Z" fill="#3C3C3C"/>
<path d="M1922.96 170H1889.43L1879.08 135.125C1876.98 127.925 1874.88 122.375 1872.78 118.475C1870.68 114.425 1867.83 111.35 1864.23 109.25C1860.63 107.15 1855.83 106.1 1849.83 106.1H1827.11V170H1795.38V12.5H1859.06C1878.26 12.5 1892.43 16.325 1901.58 23.975C1910.73 31.475 1915.31 43.25 1915.31 59.3C1915.31 69.65 1912.53 77.975 1906.98 84.275C1901.58 90.575 1894.08 94.625 1884.48 96.425C1892.13 98.975 1897.91 103.4 1901.81 109.7C1905.71 116 1909.31 124.55 1912.61 135.35L1922.96 170ZM1859.96 81.35C1866.86 81.35 1872.48 79.55 1876.83 75.95C1881.33 72.2 1883.58 66.65 1883.58 59.3C1883.58 51.95 1881.33 46.475 1876.83 42.875C1872.48 39.125 1866.86 37.25 1859.96 37.25H1827.11V81.35H1859.96Z" fill="#3C3C3C"/>
<path d="M2029.07 170C2009.12 170 1994.8 165.8 1986.1 157.4C1977.4 149 1973.05 136.85 1973.05 120.95V61.55C1973.05 45.65 1977.4 33.5 1986.1 25.1C1994.8 16.7 2009.12 12.5 2029.07 12.5H2081.73V37.25H2029.07C2020.82 37.25 2014.67 39.2 2010.62 43.1C2006.72 47 2004.78 53.15 2004.78 61.55V78.875H2071.82V103.625H2004.78V120.95C2004.78 129.2 2006.72 135.35 2010.62 139.4C2014.67 143.3 2020.82 145.25 2029.07 145.25H2082.18V170H2029.07Z" fill="#3C3C3C"/>
</svg>
