<svg width="2083" height="167" viewBox="0 0 2083 167" fill="none" xmlns="http://www.w3.org/2000/svg">
<path d="M287.125 6.49999H303.55C311.8 6.49999 318.4 7.62499 323.35 9.87499C328.3 12.125 332.575 15.725 336.175 20.675C339.775 25.475 343.975 32.75 348.775 42.5L361.825 68.825L374.875 42.5C379.675 32.75 383.875 25.475 387.475 20.675C391.075 15.725 395.35 12.125 400.3 9.87499C405.25 7.62499 411.85 6.49999 420.1 6.49999H436.525V164H407.725V39.575C405.925 39.575 404.425 40.4 403.225 42.05C402.025 43.7 400.225 46.625 397.825 50.825L361.825 117.65L325.825 50.825C323.425 46.625 321.625 43.7 320.425 42.05C319.225 40.4 317.725 39.5 315.925 39.35V164H287.125V6.49999Z" fill="white"/>
<path d="M555.096 164C535.146 164 520.821 159.8 512.121 151.4C503.421 143 499.071 130.85 499.071 114.95V55.55C499.071 39.65 503.421 27.5 512.121 19.1C520.821 10.7 535.146 6.49999 555.096 6.49999H607.746V31.25H555.096C546.846 31.25 540.696 33.2 536.646 37.1C532.746 41 530.797 47.15 530.797 55.55V72.875H597.846V97.625H530.797V114.95C530.797 123.2 532.746 129.35 536.646 133.4C540.696 137.3 546.846 139.25 555.096 139.25H608.196V164H555.096Z" fill="white"/>
<path d="M666.751 6.49999H725.251C742.951 6.49999 756.901 9.04999 767.101 14.15C777.451 19.25 784.876 27.5 789.376 38.9C794.026 50.15 796.351 65.6 796.351 85.25C796.351 104.9 794.026 120.425 789.376 131.825C784.876 143.075 777.451 151.25 767.101 156.35C756.901 161.45 742.951 164 725.251 164H666.751V6.49999ZM725.251 139.25C735.151 139.25 742.951 137.525 748.651 134.075C754.351 130.625 758.401 125 760.801 117.2C763.351 109.4 764.626 98.75 764.626 85.25C764.626 71.75 763.351 61.1 760.801 53.3C758.401 45.5 754.351 39.875 748.651 36.425C742.951 32.975 735.151 31.25 725.251 31.25H698.476V139.25H725.251Z" fill="white"/>
<path d="M858.212 6.49999H889.937V164H858.212V6.49999Z" fill="white"/>
<path d="M1017.86 166.7C996.71 166.7 980.585 161.9 969.485 152.3C958.385 142.55 952.835 128.225 952.835 109.325V61.175C952.835 42.275 958.385 28.025 969.485 18.425C980.585 8.675 996.71 3.8 1017.86 3.8C1032.56 3.8 1044.56 6.275 1053.86 11.225C1063.31 16.025 1070.81 23.3 1076.36 33.05L1053.64 48.8C1048.99 41.6 1044.11 36.425 1039.01 33.275C1034.06 30.125 1027.01 28.55 1017.86 28.55C1006.31 28.55 997.835 31.325 992.435 36.875C987.185 42.275 984.56 50.375 984.56 61.175V109.325C984.56 120.125 987.185 128.3 992.435 133.85C997.835 139.25 1006.31 141.95 1017.86 141.95C1027.76 141.95 1035.41 140.3 1040.81 137C1046.36 133.55 1051.31 128.075 1055.66 120.575L1078.16 137.225C1073.36 144.125 1068.41 149.675 1063.31 153.875C1058.21 158.075 1051.99 161.3 1044.64 163.55C1037.44 165.65 1028.51 166.7 1017.86 166.7Z" fill="white"/>
<path d="M1191.05 166.925C1170.5 166.925 1154.97 162.575 1144.47 153.875C1133.97 145.025 1128.72 132.8 1128.72 117.2V6.49999H1160.45V117.2C1160.45 133.85 1170.65 142.175 1191.05 142.175C1211.45 142.175 1221.65 133.85 1221.65 117.2V6.49999H1253.37V117.2C1253.37 132.8 1248.12 145.025 1237.62 153.875C1227.12 162.575 1211.6 166.925 1191.05 166.925Z" fill="white"/>
<path d="M1365.61 164C1346.41 164 1332.61 159.8 1324.21 151.4C1315.96 143 1311.83 130.85 1311.83 114.95V6.49999H1343.56V114.95C1343.56 123.2 1345.36 129.35 1348.96 133.4C1352.56 137.3 1358.11 139.25 1365.61 139.25H1416.01V164H1365.61Z" fill="white"/>
<path d="M1478.05 31.25H1430.57V6.49999H1557.25V31.25H1509.77V164H1478.05V31.25Z" fill="white"/>
<path d="M1668.97 166.925C1648.42 166.925 1632.89 162.575 1622.39 153.875C1611.89 145.025 1606.64 132.8 1606.64 117.2V6.49999H1638.37V117.2C1638.37 133.85 1648.57 142.175 1668.97 142.175C1689.37 142.175 1699.57 133.85 1699.57 117.2V6.49999H1731.29V117.2C1731.29 132.8 1726.04 145.025 1715.54 153.875C1705.04 162.575 1689.52 166.925 1668.97 166.925Z" fill="white"/>
<path d="M1922.96 164H1889.43L1879.08 129.125C1876.98 121.925 1874.88 116.375 1872.78 112.475C1870.68 108.425 1867.83 105.35 1864.23 103.25C1860.63 101.15 1855.83 100.1 1849.83 100.1H1827.11V164H1795.38V6.49999H1859.06C1878.26 6.49999 1892.43 10.325 1901.58 17.975C1910.73 25.475 1915.31 37.25 1915.31 53.3C1915.31 63.65 1912.53 71.975 1906.98 78.275C1901.58 84.575 1894.08 88.625 1884.48 90.425C1892.13 92.975 1897.91 97.4 1901.81 103.7C1905.71 110 1909.31 118.55 1912.61 129.35L1922.96 164ZM1859.96 75.35C1866.86 75.35 1872.48 73.55 1876.83 69.95C1881.33 66.2 1883.58 60.65 1883.58 53.3C1883.58 45.95 1881.33 40.475 1876.83 36.875C1872.48 33.125 1866.86 31.25 1859.96 31.25H1827.11V75.35H1859.96Z" fill="white"/>
<path d="M2029.07 164C2009.12 164 1994.8 159.8 1986.1 151.4C1977.4 143 1973.05 130.85 1973.05 114.95V55.55C1973.05 39.65 1977.4 27.5 1986.1 19.1C1994.8 10.7 2009.12 6.49999 2029.07 6.49999H2081.73V31.25H2029.07C2020.82 31.25 2014.67 33.2 2010.62 37.1C2006.72 41 2004.78 47.15 2004.78 55.55V72.875H2071.82V97.625H2004.78V114.95C2004.78 123.2 2006.72 129.35 2010.62 133.4C2014.67 137.3 2020.82 139.25 2029.07 139.25H2082.18V164H2029.07Z" fill="white"/>
<path d="M58.3333 44H141.667V77.3333H58.3333V44Z" fill="#20B2F1"/>
<path d="M83.3333 19H116.667V102.333H83.3333V19Z" fill="#20B2F1"/>
<path d="M83.3333 113H116.667V159C116.667 161.761 114.428 164 111.667 164H88.3333C85.5719 164 83.3333 161.761 83.3333 159V113Z" fill="white"/>
<path d="M0 49C0 46.2386 2.23858 44 5 44H33.3333V159C33.3333 161.761 31.0947 164 28.3333 164H5C2.23857 164 0 161.761 0 159V49Z" fill="white"/>
<path d="M0 49C0 46.2386 2.23858 44 5 44H46.6666V77.3333H0V49Z" fill="white"/>
<path d="M153.333 44H195C197.761 44 200 46.2386 200 49V77.3333H153.333V44Z" fill="white"/>
<path d="M166.667 44H195C197.761 44 200 46.2386 200 49L200 159C200 161.761 197.761 164 195 164H171.667C168.905 164 166.667 161.761 166.667 159V44Z" fill="white"/>
<path d="M33.3333 16.6667C33.3333 25.8714 25.8714 33.3333 16.6667 33.3333C7.46192 33.3333 0 25.8714 0 16.6667C0 7.46192 7.46192 0 16.6667 0C25.8714 0 33.3333 7.46192 33.3333 16.6667Z" fill="white"/>
<path d="M200 16.6667C200 25.8714 192.538 33.3333 183.333 33.3333C174.128 33.3333 166.667 25.8714 166.667 16.6667C166.667 7.46192 174.128 0 183.333 0C192.538 0 200 7.46192 200 16.6667Z" fill="white"/>
</svg>
