<svg width="1000" height="1000" viewBox="0 0 1000 1000" fill="none" xmlns="http://www.w3.org/2000/svg">
<rect x="333.333" y="348" width="333.333" height="133.333" fill="#104962"/>
<rect x="433.333" y="248" width="133.333" height="333.333" fill="#104962"/>
<path d="M433.333 624H566.667V808C566.667 819.045 557.712 828 546.667 828H453.333C442.288 828 433.333 819.045 433.333 808V624Z" fill="#3C3C3C"/>
<path d="M100 368C100 356.954 108.954 348 120 348H233.333V808C233.333 819.045 224.379 828 213.333 828H120C108.954 828 100 819.045 100 808V368Z" fill="#3C3C3C"/>
<path d="M100 368C100 356.954 108.954 348 120 348H286.667V481.333H100V368Z" fill="#3C3C3C"/>
<path d="M713.333 348H880C891.046 348 900 356.954 900 368V481.333H713.333V348Z" fill="#3C3C3C"/>
<path d="M766.666 348H879.999C891.045 348 899.999 356.954 899.999 368V808C899.999 819.045 891.045 828 879.999 828H786.666C775.62 828 766.666 819.045 766.666 808V348Z" fill="#3C3C3C"/>
<circle cx="166.667" cy="238.667" r="66.6666" fill="#3C3C3C"/>
<circle cx="833.333" cy="238.667" r="66.6666" fill="#3C3C3C"/>
</svg>
